<svg width="217" height="34" viewBox="0 0 217 34" fill="none" xmlns="http://www.w3.org/2000/svg">
<g clip-path="url(#clip0_741_80)">
<path d="M64.6457 17.3829C64.6457 18.8445 64.3999 20.1785 63.9077 21.3849C63.4156 22.5913 62.7464 23.6296 61.8996 24.4996C61.0525 25.3579 60.0572 26.025 58.9128 26.5006C57.7798 26.9762 56.5612 27.214 55.2567 27.214C53.9632 27.214 52.7445 26.9704 51.6001 26.4832C50.4672 25.996 49.4719 25.3174 48.6137 24.4473C47.767 23.5773 47.0973 22.5449 46.6052 21.3501C46.113 20.1437 45.8672 18.8213 45.8672 17.3829V0.817871H50.5704V9.51798C50.8222 9.19316 51.1254 8.90317 51.48 8.64799C51.8464 8.39276 52.2354 8.18395 52.6473 8.02157C53.0706 7.85914 53.5055 7.73737 53.9518 7.65614C54.398 7.56334 54.8333 7.51696 55.2567 7.51696C56.5612 7.51696 57.7798 7.76634 58.9128 8.26515C60.0572 8.75239 61.0525 9.43679 61.8996 10.3184C62.7464 11.2 63.4156 12.244 63.9077 13.4504C64.3999 14.6452 64.6457 15.956 64.6457 17.3829ZM59.9255 17.3829C59.9255 16.6636 59.7994 15.9967 59.548 15.3818C59.3077 14.7554 58.9756 14.2161 58.5522 13.7636C58.1289 13.3112 57.6312 12.9574 57.0588 12.7022C56.4983 12.447 55.8975 12.3194 55.2567 12.3194C54.6159 12.3194 54.0091 12.4644 53.4371 12.7544C52.8762 13.0328 52.384 13.4098 51.9607 13.8854C51.5373 14.3494 51.2057 14.8888 50.9653 15.5037C50.725 16.1069 50.6048 16.7333 50.6048 17.3829C50.6048 18.1021 50.725 18.7691 50.9653 19.3839C51.2057 19.9987 51.5373 20.5323 51.9607 20.9847C52.384 21.4371 52.8762 21.7967 53.4371 22.0635C54.0091 22.3187 54.6159 22.4463 55.2567 22.4463C55.8975 22.4463 56.4983 22.3187 57.0588 22.0635C57.6312 21.7967 58.1289 21.4371 58.5522 20.9847C58.9756 20.5323 59.3077 19.9987 59.548 19.3839C59.7994 18.7691 59.9255 18.1021 59.9255 17.3829Z" fill="white"/>
<path d="M85.0207 17.383C85.0207 18.775 84.7749 20.0742 84.2827 21.2807C83.7906 22.4755 83.1209 23.5137 82.2742 24.3953C81.4275 25.2653 80.4317 25.9555 79.2878 26.4659C78.1548 26.9647 76.9362 27.2141 75.6312 27.2141C74.3382 27.2141 73.1195 26.9647 71.9751 26.4659C70.8422 25.9555 69.8469 25.2653 68.9883 24.3953C68.1416 23.5137 67.4724 22.4755 66.9802 21.2807C66.488 20.0742 66.2422 18.775 66.2422 17.383C66.2422 15.9678 66.488 14.657 66.9802 13.4505C67.4724 12.2441 68.1416 11.2059 68.9883 10.3359C69.8469 9.45432 70.8422 8.76407 71.9751 8.26527C73.1195 7.76647 74.3382 7.51709 75.6312 7.51709C76.9362 7.51709 78.1548 7.75486 79.2878 8.2305C80.4317 8.69449 81.4275 9.36152 82.2742 10.2315C83.1209 11.0899 83.7906 12.1281 84.2827 13.3461C84.7749 14.5526 85.0207 15.8982 85.0207 17.383ZM80.3005 17.383C80.3005 16.6174 80.1744 15.9272 79.9226 15.3124C79.6822 14.686 79.3506 14.1523 78.9273 13.7115C78.5039 13.2591 78.0058 12.9169 77.4338 12.685C76.8729 12.4413 76.272 12.3195 75.6312 12.3195C74.9905 12.3195 74.3841 12.4413 73.8117 12.685C73.2512 12.9169 72.759 13.2591 72.3357 13.7115C71.9238 14.1523 71.5977 14.686 71.3573 15.3124C71.117 15.9272 70.9968 16.6174 70.9968 17.383C70.9968 18.1022 71.117 18.7692 71.3573 19.384C71.5977 19.9988 71.9238 20.5324 72.3357 20.9849C72.759 21.4372 73.2512 21.7969 73.8117 22.0636C74.3841 22.3188 74.9905 22.4464 75.6312 22.4464C76.272 22.4464 76.8729 22.3246 77.4338 22.0811C78.0058 21.8374 78.5039 21.4953 78.9273 21.0544C79.3506 20.6136 79.6822 20.08 79.9226 19.4536C80.1744 18.8272 80.3005 18.137 80.3005 17.383Z" fill="white"/>
<path d="M92.2995 26.8661H87.6133V8.23047H88.7462L90.291 10.4403C91.0464 9.74428 91.9046 9.21067 92.866 8.83948C93.8269 8.45664 94.8227 8.26524 95.8524 8.26524H99.9892V12.9981H95.8524C95.3603 12.9981 94.897 13.0909 94.4622 13.2765C94.0274 13.4621 93.6499 13.7173 93.3293 14.0421C93.0086 14.3669 92.7573 14.7497 92.5738 15.1905C92.3908 15.6313 92.2995 16.1012 92.2995 16.6V26.8661Z" fill="white"/>
<path d="M119.626 26.8661H118.493L116.673 24.3083C116.227 24.7143 115.752 25.0971 115.249 25.4567C114.756 25.8047 114.236 26.1121 113.686 26.3789C113.137 26.6341 112.571 26.8371 111.987 26.9879C111.415 27.1387 110.831 27.2141 110.236 27.2141C108.943 27.2141 107.724 26.9937 106.58 26.5529C105.447 26.1121 104.451 25.4741 103.593 24.6389C102.746 23.7921 102.077 22.7597 101.585 21.5416C101.093 20.3236 100.847 18.9374 100.847 17.383C100.847 15.933 101.093 14.6048 101.585 13.3984C102.077 12.1803 102.746 11.1363 103.593 10.2663C104.451 9.39629 105.447 8.7235 106.58 8.24791C107.724 7.76067 108.943 7.51709 110.236 7.51709C110.831 7.51709 111.42 7.59248 112.004 7.74326C112.588 7.89408 113.154 8.10289 113.704 8.36967C114.253 8.63651 114.773 8.94971 115.266 9.3093C115.769 9.66888 116.238 10.0575 116.673 10.4751L118.493 8.26527H119.626V26.8661ZM114.905 17.383C114.905 16.7334 114.779 16.107 114.528 15.5038C114.287 14.889 113.956 14.3495 113.532 13.8856C113.108 13.4099 112.611 13.0329 112.039 12.7545C111.478 12.4645 110.877 12.3195 110.236 12.3195C109.595 12.3195 108.989 12.4297 108.417 12.6501C107.856 12.8705 107.364 13.1954 106.941 13.6245C106.529 14.0537 106.203 14.5874 105.962 15.2254C105.722 15.8518 105.602 16.571 105.602 17.383C105.602 18.195 105.722 18.92 105.962 19.558C106.203 20.1844 106.529 20.7122 106.941 21.1414C107.364 21.5707 107.856 21.8955 108.417 22.1158C108.989 22.3362 109.595 22.4464 110.236 22.4464C110.877 22.4464 111.478 22.3073 112.039 22.0288C112.611 21.7388 113.108 21.3618 113.532 20.8979C113.956 20.4222 114.287 19.8828 114.528 19.2796C114.779 18.6648 114.905 18.0326 114.905 17.383Z" fill="white"/>
<path d="M138.662 3.16684C138.662 3.60764 138.576 4.01945 138.405 4.40225C138.245 4.78507 138.021 5.12144 137.735 5.41149C137.461 5.68988 137.129 5.91609 136.74 6.09008C136.362 6.25246 135.961 6.33366 135.538 6.33366C135.092 6.33366 134.674 6.25246 134.285 6.09008C133.907 5.91609 133.576 5.68988 133.289 5.41149C133.003 5.12144 132.774 4.78507 132.603 4.40225C132.443 4.01945 132.363 3.60764 132.363 3.16684C132.363 2.73763 132.443 2.33163 132.603 1.94882C132.774 1.55442 133.003 1.21802 133.289 0.93961C133.576 0.649609 133.907 0.423405 134.285 0.261003C134.674 0.087001 135.092 0 135.538 0C135.961 0 136.362 0.087001 136.74 0.261003C137.129 0.423405 137.461 0.649609 137.735 0.93961C138.021 1.21802 138.245 1.55442 138.405 1.94882C138.576 2.33163 138.662 2.73763 138.662 3.16684ZM126.08 33.9652V29.1802L128.672 29.2149C129.301 29.2149 129.885 29.0816 130.423 28.8147C130.961 28.5595 131.424 28.2115 131.813 27.7707C132.214 27.3415 132.529 26.8427 132.757 26.2743C132.986 25.7059 133.101 25.1085 133.101 24.4821V8.23031H137.89V24.4821H137.856C137.844 25.3521 137.724 26.1931 137.495 27.0051C137.278 27.8171 136.963 28.5712 136.551 29.2672C136.139 29.9748 135.647 30.6127 135.075 31.1812C134.502 31.7612 133.867 32.2542 133.169 32.6602C132.483 33.0778 131.745 33.3968 130.955 33.6172C130.154 33.8492 129.324 33.9652 128.466 33.9652H126.08Z" fill="white"/>
<path d="M159.208 17.383C159.208 18.775 158.962 20.0742 158.47 21.2807C157.978 22.4755 157.309 23.5137 156.462 24.3953C155.615 25.2653 154.62 25.9555 153.475 26.4659C152.342 26.9647 151.124 27.2141 149.819 27.2141C148.526 27.2141 147.307 26.9647 146.163 26.4659C145.03 25.9555 144.034 25.2653 143.176 24.3953C142.33 23.5137 141.66 22.4755 141.168 21.2807C140.676 20.0742 140.43 18.775 140.43 17.383C140.43 15.9678 140.676 14.657 141.168 13.4505C141.66 12.2441 142.33 11.2059 143.176 10.3359C144.034 9.45432 145.03 8.76407 146.163 8.26527C147.307 7.76647 148.526 7.51709 149.819 7.51709C151.124 7.51709 152.342 7.75486 153.475 8.2305C154.62 8.69449 155.615 9.36152 156.462 10.2315C157.309 11.0899 157.978 12.1281 158.47 13.3461C158.962 14.5526 159.208 15.8982 159.208 17.383ZM154.488 17.383C154.488 16.6174 154.362 15.9272 154.111 15.3124C153.87 14.686 153.538 14.1523 153.115 13.7115C152.691 13.2591 152.194 12.9169 151.621 12.685C151.061 12.4413 150.46 12.3195 149.819 12.3195C149.178 12.3195 148.572 12.4413 148 12.685C147.439 12.9169 146.947 13.2591 146.523 13.7115C146.111 14.1523 145.785 14.686 145.545 15.3124C145.304 15.9272 145.184 16.6174 145.184 17.383C145.184 18.1022 145.304 18.7692 145.545 19.384C145.785 19.9988 146.111 20.5324 146.523 20.9849C146.947 21.4372 147.439 21.7969 148 22.0636C148.572 22.3188 149.178 22.4464 149.819 22.4464C150.46 22.4464 151.061 22.3246 151.621 22.0811C152.194 21.8374 152.691 21.4953 153.115 21.0544C153.538 20.6136 153.87 20.08 154.111 19.4536C154.362 18.8272 154.488 18.137 154.488 17.383Z" fill="white"/>
<path d="M174.881 17.383C174.881 16.7334 174.755 16.107 174.503 15.5038C174.263 14.889 173.931 14.3495 173.507 13.8856C173.084 13.4099 172.586 13.0329 172.014 12.7545C171.453 12.4645 170.853 12.3195 170.212 12.3195C169.571 12.3195 168.964 12.4297 168.392 12.6501C167.831 12.8705 167.34 13.1954 166.916 13.6245C166.504 14.0537 166.178 14.5874 165.937 15.2254C165.697 15.8518 165.577 16.571 165.577 17.383C165.577 18.1602 165.697 18.862 165.937 19.4884C166.178 20.1032 166.504 20.631 166.916 21.0718C167.34 21.5126 167.831 21.8548 168.392 22.0985C168.964 22.3304 169.571 22.4464 170.212 22.4464C170.853 22.4464 171.453 22.3073 172.014 22.0288C172.586 21.7388 173.084 21.3618 173.507 20.8979C173.931 20.4222 174.263 19.8828 174.503 19.2796C174.755 18.6648 174.881 18.0326 174.881 17.383ZM179.601 24.5171C179.601 25.8279 179.355 27.0575 178.863 28.2059C178.371 29.3543 177.695 30.3577 176.837 31.2161C175.991 32.0746 174.995 32.7532 173.851 33.252C172.718 33.7508 171.505 34.0002 170.212 34.0002L167.86 33.9654V29.2151L170.177 29.2499C170.91 29.2499 171.533 29.1513 172.048 28.9541C172.563 28.7685 172.998 28.5075 173.353 28.1711C173.708 27.8463 173.988 27.4693 174.194 27.0401C174.411 26.6109 174.583 26.1585 174.709 25.6829C174.526 25.9845 174.263 26.2339 173.919 26.4311C173.576 26.6167 173.193 26.7675 172.769 26.8835C172.357 27.0111 171.923 27.0981 171.465 27.1445C171.019 27.1909 170.601 27.2141 170.212 27.2141C168.919 27.2141 167.7 26.9879 166.556 26.5355C165.423 26.0831 164.427 25.4393 163.569 24.6041C162.722 23.7573 162.052 22.7248 161.56 21.5068C161.069 20.2888 160.822 18.9142 160.822 17.383C160.822 15.9794 161.069 14.6744 161.56 13.468C162.052 12.2615 162.722 11.2175 163.569 10.3359C164.427 9.45432 165.423 8.76407 166.556 8.26527C167.7 7.76647 168.919 7.51709 170.212 7.51709C170.807 7.51709 171.396 7.59248 171.979 7.74326C172.563 7.89408 173.13 8.10289 173.679 8.36967C174.228 8.63651 174.749 8.94971 175.241 9.3093C175.745 9.66888 176.214 10.0575 176.649 10.4751L178.468 8.26527H179.601V24.5171Z" fill="white"/>
<path d="M200.989 26.8661H199.856L198.036 24.3083C197.59 24.7143 197.115 25.0971 196.611 25.4567C196.119 25.8047 195.599 26.1121 195.05 26.3789C194.5 26.6341 193.934 26.8371 193.35 26.9879C192.778 27.1387 192.194 27.2141 191.599 27.2141C190.306 27.2141 189.087 26.9937 187.943 26.5529C186.81 26.1121 185.815 25.4741 184.956 24.6389C184.109 23.7921 183.44 22.7597 182.948 21.5416C182.456 20.3236 182.21 18.9374 182.21 17.383C182.21 15.933 182.456 14.6048 182.948 13.3984C183.44 12.1803 184.109 11.1363 184.956 10.2663C185.815 9.39629 186.81 8.7235 187.943 8.24791C189.087 7.76067 190.306 7.51709 191.599 7.51709C192.194 7.51709 192.784 7.59248 193.367 7.74326C193.951 7.89408 194.518 8.10289 195.067 8.36967C195.616 8.63651 196.137 8.94971 196.629 9.3093C197.132 9.66888 197.601 10.0575 198.036 10.4751L199.856 8.26527H200.989V26.8661ZM196.268 17.383C196.268 16.7334 196.142 16.107 195.89 15.5038C195.65 14.889 195.318 14.3495 194.895 13.8856C194.472 13.4099 193.974 13.0329 193.402 12.7545C192.841 12.4645 192.24 12.3195 191.599 12.3195C190.958 12.3195 190.352 12.4297 189.78 12.6501C189.219 12.8705 188.727 13.1954 188.303 13.6245C187.892 14.0537 187.565 14.5874 187.325 15.2254C187.085 15.8518 186.965 16.571 186.965 17.383C186.965 18.195 187.085 18.92 187.325 19.558C187.565 20.1844 187.892 20.7122 188.303 21.1414C188.727 21.5707 189.219 21.8955 189.78 22.1158C190.352 22.3362 190.958 22.4464 191.599 22.4464C192.24 22.4464 192.841 22.3073 193.402 22.0288C193.974 21.7388 194.472 21.3618 194.895 20.8979C195.318 20.4222 195.65 19.8828 195.89 19.2796C196.142 18.6648 196.268 18.0326 196.268 17.383Z" fill="white"/>
<path d="M209.262 26.8661H204.576V8.23047H205.709L207.254 10.4403C208.009 9.74428 208.868 9.21067 209.828 8.83948C210.79 8.45664 211.786 8.26524 212.815 8.26524H216.952V12.9981H212.815C212.323 12.9981 211.86 13.0909 211.425 13.2765C210.99 13.4621 210.612 13.7173 210.292 14.0421C209.972 14.3669 209.72 14.7497 209.537 15.1905C209.354 15.6313 209.262 16.1012 209.262 16.6V26.8661Z" fill="white"/>
<path d="M19.4715 17.4008C19.4715 18.8639 19.2163 20.1993 18.7061 21.407C18.1959 22.6146 17.5017 23.6539 16.6237 24.5248C15.7457 25.3841 14.7133 26.0518 13.5268 26.5279C12.3521 27.004 11.0884 27.242 9.7357 27.242C8.39491 27.242 7.13122 26.9981 5.94468 26.5105C4.76997 26.0228 3.73766 25.3434 2.84774 24.4725C1.96969 23.6016 1.27555 22.5682 0.765333 21.3721C0.25511 20.1645 0 18.8407 0 17.4008V0.818848H4.87675V9.52786C5.13778 9.20273 5.45225 8.91242 5.82006 8.65696C6.19979 8.40151 6.6032 8.19248 7.03036 8.02991C7.4694 7.86735 7.92028 7.7454 8.38303 7.66412C8.84579 7.57123 9.29671 7.52481 9.7357 7.52481C11.0884 7.52481 12.3521 7.77446 13.5268 8.27376C14.7133 8.76146 15.7457 9.44658 16.6237 10.3291C17.5017 11.2116 18.1959 12.2567 18.7061 13.4643C19.2163 14.6604 19.4715 15.9725 19.4715 17.4008ZM14.5769 17.4008C14.5769 16.6809 14.4464 16.0132 14.1853 15.3978C13.9361 14.7707 13.592 14.2307 13.153 13.7779C12.714 13.325 12.1978 12.9708 11.6046 12.7154C11.0232 12.4599 10.4002 12.3322 9.7357 12.3322C9.07122 12.3322 8.44238 12.4773 7.84909 12.7676C7.26768 13.0463 6.75745 13.4237 6.31841 13.8998C5.87941 14.3642 5.53531 14.9042 5.28612 15.5197C5.03696 16.1235 4.91234 16.7506 4.91234 17.4008C4.91234 18.1208 5.03696 18.7885 5.28612 19.4039C5.53531 20.0193 5.87941 20.5535 6.31841 21.0064C6.75745 21.4592 7.26768 21.8192 7.84909 22.0863C8.44238 22.3417 9.07122 22.4694 9.7357 22.4694C10.4002 22.4694 11.0232 22.3417 11.6046 22.0863C12.1978 21.8192 12.714 21.4592 13.153 21.0064C13.592 20.5535 13.9361 20.0193 14.1853 19.4039C14.4464 18.7885 14.5769 18.1208 14.5769 17.4008Z" fill="white"/>
<path d="M27.9788 3.17008C27.9788 3.61134 27.8899 4.02356 27.7118 4.40676C27.5458 4.78997 27.3144 5.1267 27.0177 5.41702C26.7329 5.69568 26.3889 5.92212 25.9854 6.09629C25.5939 6.2589 25.1785 6.34018 24.7396 6.34018C24.2768 6.34018 23.8437 6.2589 23.4403 6.09629C23.0487 5.92212 22.7046 5.69568 22.4079 5.41702C22.1113 5.1267 21.874 4.78997 21.696 4.40676C21.5299 4.02356 21.4468 3.61134 21.4468 3.17008C21.4468 2.74044 21.5299 2.33402 21.696 1.95082C21.874 1.55601 22.1113 1.21926 22.4079 0.940576C22.7046 0.650275 23.0487 0.423839 23.4403 0.26127C23.8437 0.0870903 24.2768 0 24.7396 0C25.1785 0 25.5939 0.0870903 25.9854 0.26127C26.3889 0.423839 26.7329 0.650275 27.0177 0.940576C27.3144 1.21926 27.5458 1.55601 27.7118 1.95082C27.8899 2.33402 27.9788 2.74044 27.9788 3.17008ZM14.9326 34V29.21L17.6202 29.2449C18.2728 29.2449 18.8779 29.1113 19.4356 28.8442C19.9933 28.5888 20.4738 28.2404 20.8773 27.7992C21.2926 27.3695 21.6189 26.8702 21.8562 26.3012C22.0935 25.7322 22.2122 25.1342 22.2122 24.5072V8.23874H27.1779V24.5072H27.1423C27.1304 25.3781 27.0059 26.2199 26.7685 27.0328C26.5431 27.8456 26.2168 28.6004 25.7896 29.2971C25.3625 30.0055 24.8523 30.6441 24.259 31.2131C23.6657 31.7937 23.0071 32.2872 22.2834 32.6936C21.5714 33.1117 20.8061 33.431 19.9874 33.6517C19.1568 33.8839 18.2965 34 17.4066 34H14.9326Z" fill="#EE3945"/>
<path d="M38.0704 0H36.6943V26.2933H38.0704V0Z" fill="white"/>
</g>
<defs>
<clipPath id="clip0_741_80">
<rect width="216.952" height="34" fill="white"/>
</clipPath>
</defs>
</svg>
