<svg width="1312" height="1202" viewBox="0 0 1312 1202" fill="none" xmlns="http://www.w3.org/2000/svg">
<path d="M106.455 1179.25C95.7536 1189.96 81.2509 1195.31 62.9482 1195.31C44.6456 1195.31 30.0896 1190.06 19.2789 1179.58C8.57624 1169.19 3.22559 1154.9 3.22559 1136.71C3.22559 1122.05 7.18558 1109.52 15.1056 1099.14C23.1322 1088.97 34.2109 1082.82 48.3389 1080.68V1113.11C42.6669 1114.61 38.3029 1117.44 35.2549 1121.62C32.2029 1125.79 30.6789 1130.82 30.6789 1136.71C30.6789 1144.95 33.4603 1151.21 39.0269 1155.49C44.5923 1159.78 52.5669 1161.91 62.9482 1161.91C73.3296 1161.91 81.3043 1159.78 86.8696 1155.49C92.4349 1151.21 95.2176 1144.95 95.2176 1136.71C95.2176 1130.29 93.4789 1124.96 90.0002 1120.74C86.5216 1116.51 81.6242 1113.8 75.3096 1112.63V1080.52C90.2949 1082.34 101.907 1088.33 110.148 1098.5C118.498 1108.77 122.67 1121.51 122.67 1136.71C122.67 1154.48 117.266 1168.66 106.455 1179.25Z" fill="white"/>
<path d="M45.2995 1084.31C33.6582 1086.77 24.3142 1092.38 17.4888 1101.03C10.0502 1110.78 6.2635 1122.8 6.2635 1136.71C6.2635 1153.97 11.3542 1167.66 21.3942 1177.4C31.5675 1187.26 45.5475 1192.27 62.9475 1192.27C80.3315 1192.27 94.2462 1187.17 104.306 1177.11L104.327 1177.08C114.482 1167.13 119.631 1153.55 119.631 1136.71C119.631 1122.3 115.647 1110.09 107.79 1100.42C100.729 1091.7 90.8368 1086.2 78.3488 1084.03V1110.19C84.1915 1111.72 88.8915 1114.61 92.3448 1118.81C96.2662 1123.57 98.2555 1129.59 98.2555 1136.71C98.2555 1145.91 95.0475 1153.04 88.7208 1157.9C82.6395 1162.58 73.9688 1164.95 62.9475 1164.95C51.9275 1164.95 43.2555 1162.58 37.1742 1157.9C30.8475 1153.04 27.6408 1145.91 27.6408 1136.71C27.6408 1130.19 29.3768 1124.51 32.8022 1119.82C35.8342 1115.67 40.0315 1112.66 45.2995 1110.86V1084.31ZM62.9475 1198.35C43.9128 1198.35 28.5088 1192.76 17.1635 1181.76C5.8995 1170.83 0.1875 1155.67 0.1875 1136.71C0.1875 1121.43 4.39417 1108.17 12.6888 1097.3C21.2022 1086.52 33.0315 1079.93 47.8822 1077.67L51.3768 1077.14V1115.45L49.1142 1116.05C44.0875 1117.37 40.3568 1119.78 37.7088 1123.41C35.0222 1127.08 33.7168 1131.43 33.7168 1136.71C33.7168 1144.02 36.0595 1149.38 40.8782 1153.09C45.8728 1156.93 53.2982 1158.88 62.9475 1158.88C72.5968 1158.88 80.0222 1156.93 85.0168 1153.09C89.8355 1149.38 92.1782 1144.02 92.1782 1136.71C92.1782 1130.96 90.6982 1126.37 87.6528 1122.67C84.6142 1118.97 80.3942 1116.67 74.7542 1115.62L72.2715 1115.15V1077.09L75.6768 1077.5C91.4008 1079.41 103.793 1085.83 112.507 1096.59C121.266 1107.36 125.707 1120.86 125.707 1136.71C125.707 1155.24 119.95 1170.28 108.593 1181.41C97.3528 1192.65 81.9968 1198.35 62.9475 1198.35Z" fill="white"/>
<path d="M78.681 1004.91V977.136L52.3503 985.645C43.1463 988.641 37.0983 990.46 34.209 991.102C43.0916 993.778 49.141 995.597 52.3503 996.562L78.681 1004.91ZM120.101 963.649L105.172 968.466V1013.26L120.101 1018.08V1050.83L5.79297 1010.21V971.678L120.101 929.613V963.649Z" fill="white"/>
<path d="M45.0069 991.18L53.2269 993.654L75.6429 1000.76V981.311L53.2855 988.538C50.1575 989.555 47.4029 990.435 45.0069 991.18ZM81.7189 1009.06L48.5055 998.579L22.2095 990.66L33.5495 988.138C36.3402 987.516 42.3495 985.707 51.4109 982.758L81.7189 972.963V1009.06ZM8.83221 1008.06L117.063 1046.52V1020.29L102.134 1015.47V966.255L117.063 961.438V933.968L8.83221 973.798V1008.06ZM123.139 1055.13L2.75488 1012.35V969.56L123.139 925.258V965.862L108.21 970.679V1011.05L123.139 1015.86V1055.13Z" fill="white"/>
<path d="M5.79395 808.569V759.444H120.101V789.948H87.6713C66.6939 789.948 48.8726 789.625 34.2099 788.982C43.6286 791.337 52.0846 793.586 59.5753 795.725L120.101 812.264V838.27L59.5753 854.806C52.0846 856.949 43.6286 859.194 34.2099 861.549C48.8726 860.906 66.6939 860.586 87.6713 860.586H120.101V891.092H5.79395V841.962L49.1406 831.048C60.2726 828.262 68.4593 826.337 73.7033 825.268C68.4593 824.198 60.2726 822.269 49.1406 819.486L5.79395 808.569Z" fill="white"/>
<path d="M8.83222 784.829L34.3429 785.948C48.9202 786.586 66.8629 786.912 87.6722 786.912H117.063V762.481H8.83222V784.829ZM8.83222 844.332V864.762L33.4736 858.602C42.8629 856.256 51.3642 853.994 58.7402 851.885L117.063 835.952V814.584L58.7749 798.657C51.2642 796.513 42.7616 794.253 33.4736 791.93L8.83222 785.77V806.201L49.8829 816.542C60.9576 819.309 69.1776 821.244 74.3109 822.29L88.9056 825.266L74.3122 828.245C69.0922 829.309 60.8709 831.245 49.8789 833.996L8.83222 844.332ZM8.83222 888.054H117.063V863.625H87.6722C66.8082 863.625 48.8656 863.948 34.3429 864.585L8.83222 865.704V888.054ZM123.139 894.129H2.75488V839.596L48.4002 828.104C52.6629 827.036 56.5162 826.089 59.9455 825.268C56.5509 824.454 52.7136 823.512 48.4042 822.434L2.75488 810.937V756.406H123.139V792.986H87.6722C77.9069 792.986 68.7682 792.916 60.3055 792.776L60.4095 792.804L123.139 809.945V840.592L60.3762 857.738C60.3496 857.745 60.3242 857.753 60.2975 857.76C68.7522 857.62 77.8949 857.549 87.6722 857.549H123.139V894.129Z" fill="white"/>
<path d="M78.681 675.001V647.227L52.3503 655.737C43.1463 658.733 37.0983 660.551 34.209 661.194C43.0916 663.87 49.141 665.689 52.3503 666.654L78.681 675.001ZM120.101 633.741L105.172 638.558V683.35L120.101 688.167V720.918L5.79297 680.298V641.77L120.101 599.706V633.741Z" fill="white"/>
<path d="M45.0055 661.272L53.2269 663.747L75.6429 670.851V651.403L53.2855 658.629C50.1575 659.647 47.4015 660.527 45.0055 661.272ZM81.7189 679.152L49.6575 669.019L22.2095 660.752L33.5495 658.229C36.3402 657.608 42.3495 655.799 51.4109 652.849L81.7189 643.055V679.152ZM8.83222 678.155L117.063 716.615V690.38L102.132 685.563V636.348L117.063 631.531V604.063L8.83222 643.889V678.155ZM123.139 725.223L2.75488 682.443V639.652L123.139 595.352V635.955L108.21 640.772V681.139L123.139 685.956V725.223Z" fill="white"/>
<path d="M57.1686 529.075V509.811C57.1686 500.283 52.7793 495.522 44.0033 495.522C35.2259 495.522 30.8379 500.283 30.8379 509.811V529.075H57.1686ZM108.543 463.894C113.251 463.68 117.106 462.718 120.101 461.006V494.075C117.641 495.362 113.787 496.111 108.543 496.324L95.5379 496.804C89.7593 497.02 85.8259 498.332 83.7366 500.74C81.6513 503.146 80.6073 507.026 80.6073 512.38V529.075H120.101V561.186H5.79395V504.994C5.79395 490.438 8.95128 479.679 15.2659 472.723C21.6859 465.872 29.8219 462.448 39.6673 462.448C45.5539 462.448 50.8539 463.975 55.5633 467.024C60.2726 470.076 63.9099 474.488 66.4793 480.27C68.6193 474.488 71.7246 470.502 75.7913 468.31C79.8579 466.115 85.6913 464.856 93.2913 464.536L108.543 463.894Z" fill="white"/>
<path d="M33.8772 526.036H54.1305V509.811C54.1305 501.924 51.1025 498.559 44.0039 498.559C36.9052 498.559 33.8772 501.924 33.8772 509.811V526.036ZM60.2079 532.112H27.7999V509.811C27.7999 498.636 33.5545 492.483 44.0039 492.483C54.4532 492.483 60.2079 498.636 60.2079 509.811V532.112ZM8.83319 558.147H117.063V532.112H77.5692V512.379C77.5692 506.213 78.8359 501.756 81.4425 498.749C84.1305 495.649 88.7052 494.019 95.4252 493.768L108.432 493.288C112.652 493.116 115.351 492.596 117.063 492.045V465.576C114.583 466.335 111.78 466.788 108.681 466.928H108.672L93.4185 467.572C86.3185 467.869 80.8745 469.017 77.2345 470.983C73.8545 472.805 71.1945 476.284 69.3279 481.324L66.7345 488.325L63.7025 481.503C61.3905 476.299 58.0959 472.285 53.9119 469.573C49.7225 466.861 44.9292 465.485 39.6679 465.485C30.6145 465.485 23.3572 468.532 17.4825 474.8C11.7545 481.111 8.83319 491.281 8.83319 504.993V558.147ZM123.14 564.223H2.75586V504.993C2.75586 489.725 6.20786 478.18 13.0172 470.68C20.0385 463.189 28.9932 459.408 39.6679 459.408C46.1212 459.408 52.0239 461.113 57.2145 464.472C60.7985 466.795 63.8399 469.849 66.2999 473.591C68.4479 470.029 71.1425 467.364 74.3492 465.635C78.8679 463.196 85.0225 461.844 93.1639 461.501L108.411 460.857C112.611 460.667 116.036 459.829 118.593 458.367L123.14 455.768V495.915L121.508 496.768C118.619 498.277 114.419 499.125 108.668 499.359L95.6505 499.839C90.8425 500.02 87.5159 501.019 86.0332 502.729C84.4719 504.532 83.6452 507.868 83.6452 512.379V526.036H123.14V564.223Z" fill="white"/>
<path d="M94.8966 363.239C94.8966 355.106 92.0593 348.63 86.3873 343.813C80.8219 338.998 73.0073 336.589 62.9473 336.589C53.1006 336.589 45.3139 338.998 39.5886 343.813C33.8619 348.63 30.9979 355.106 30.9979 363.239C30.9979 371.375 33.8619 377.849 39.5886 382.666C45.3139 387.481 53.1006 389.89 62.9473 389.89C73.0073 389.89 80.8219 387.481 86.3873 382.666C92.0593 377.849 94.8966 371.375 94.8966 363.239ZM106.294 406.747C95.5913 417.773 81.1433 423.283 62.9473 423.283C44.8593 423.283 30.3566 417.773 19.4406 406.747C8.62861 395.617 3.22461 381.114 3.22461 363.239C3.22461 345.365 8.62861 330.862 19.4406 319.731C30.3566 308.706 44.8593 303.195 62.9473 303.195C81.1433 303.195 95.5913 308.706 106.294 319.731C117.213 330.755 122.67 345.258 122.67 363.239C122.67 381.221 117.213 395.723 106.294 406.747Z" fill="white"/>
<path d="M62.9479 339.628C53.8825 339.628 46.6812 341.818 41.5439 346.138C36.4932 350.388 34.0372 355.981 34.0372 363.24C34.0372 370.498 36.4932 376.092 41.5439 380.341C46.6812 384.661 53.8825 386.852 62.9479 386.852C72.2092 386.852 79.4265 384.67 84.3999 380.368C89.4265 376.1 91.8585 370.504 91.8585 363.24C91.8585 355.976 89.4265 350.378 84.4212 346.128C79.4265 341.809 72.2092 339.628 62.9479 339.628ZM62.9479 392.928C52.4132 392.928 43.8959 390.257 37.6332 384.992C31.2145 379.592 27.9599 372.274 27.9599 363.24C27.9599 354.205 31.2145 346.886 37.6332 341.488C43.8959 336.221 52.4132 333.552 62.9479 333.552C73.7119 333.552 82.2665 336.23 88.3745 341.514C94.7119 346.896 97.9345 354.212 97.9345 363.24C97.9345 372.268 94.7119 379.582 88.3545 384.982C82.2665 390.249 73.7119 392.928 62.9479 392.928ZM62.9479 306.234C45.7839 306.234 31.8732 311.494 21.5999 321.869C11.4305 332.34 6.26386 346.265 6.26386 363.24C6.26386 380.214 11.4305 394.14 21.6199 404.63C31.8732 414.985 45.7839 420.245 62.9479 420.245C80.2065 420.245 94.0572 414.992 104.115 404.632L104.136 404.61C114.419 394.228 119.632 380.308 119.632 363.24C119.632 346.17 114.419 332.252 104.136 321.869C94.0559 311.486 80.2052 306.234 62.9479 306.234ZM62.9479 426.322C44.1025 426.322 28.7385 420.456 17.2825 408.885C5.93186 397.2 0.186523 381.849 0.186523 363.24C0.186523 344.629 5.93186 329.278 17.2612 317.614C28.7385 306.024 44.1025 300.157 62.9479 300.157C81.9105 300.157 97.2279 306.03 108.475 317.614C119.903 329.154 125.708 344.512 125.708 363.24C125.708 381.961 119.905 397.316 108.464 408.876C97.2185 420.452 81.9052 426.322 62.9479 426.322Z" fill="white"/>
<path d="M5.79395 171.556H34.3699V205.27H120.101V237.38H34.3699V271.094H5.79395V171.556Z" fill="white"/>
<path d="M8.83222 268.055H31.3322V234.342H117.063V208.307H31.3322V174.594H8.83222V268.055ZM37.4082 274.131H2.75488V168.518H37.4082V202.231H123.139V240.418H37.4082V274.131Z" fill="white"/>
<path d="M34.3699 39.591V97.7097H49.4619V44.7283H76.1126V97.7097H91.5246V39.591H120.101V129.82H5.79395V39.591H34.3699Z" fill="white"/>
<path d="M8.83222 126.781H117.063V42.6294H94.5642V100.747H73.0749V47.7668H52.5015V100.747H31.3322V42.6294H8.83222V126.781ZM123.139 132.857H2.75488V36.5521H37.4082V94.6708H46.4242V41.6894H79.1509V94.6708H88.4869V36.5521H123.139V132.857Z" fill="white"/>
<path d="M1161.37 965.472C1152.63 973.045 1139.82 974.211 1131.66 974.211H1115.34V907.792H1139.82C1151.47 907.792 1159.04 913.036 1163.7 918.279C1168.95 924.107 1171.28 932.844 1171.28 941.584C1171.28 953.819 1166.03 961.393 1161.37 965.472ZM771.602 792.432C749.586 792.432 729.34 794.976 710.861 799.416L722.829 763.918H861.885L879.294 816.298C850.08 801.868 814.118 792.432 771.602 792.432ZM822.29 1053.45C810.638 1065.1 793.16 1073.26 771.602 1073.26C750.046 1073.26 732.566 1065.1 720.914 1053.45C706.932 1039.46 698.774 1017.91 698.774 995.768C698.774 974.793 706.932 952.071 720.914 937.507C730.236 927.6 746.55 917.696 771.602 917.696C794.908 917.696 811.804 927.019 822.29 937.507C836.274 950.907 844.43 971.299 844.43 995.768C844.43 1020.24 835.108 1040.63 822.29 1053.45ZM729.022 142.178L769.036 268.556H693.854L729.022 142.178ZM828.757 664.243H819.605H756.43L762.033 647.623L790.92 550.394L828.757 664.243ZM818.514 424.828H765.632L788.438 329.838L818.514 424.828ZM624.802 841.452C619.565 845.762 614.694 850.216 610.217 854.772C592.808 872.515 577.528 895.847 567.668 924.192C557.916 897.673 543.721 878.469 530.23 864.977C523.21 858.029 515.756 851.966 508.045 846.636L568.941 666.358H628.344L562.461 841.452H624.802ZM1308.75 1140.8L1254.01 1058.69C1248.76 1050.53 1241.19 1044.71 1233.62 1040.63V1037.13C1256.34 1032.47 1275.57 1020.82 1287.22 1006.26C1298.29 992.855 1308.78 971.299 1308.78 936.923C1308.78 890.896 1291.88 861.183 1272.07 841.372C1236.53 805.832 1194 801.172 1153.22 801.172H1006.65L884.292 475.979H984.186L983.909 475.211H1263.96V390.652H1307.49V286.811H1068.26V5.29223H937.873V117.884V129.283H960.876V385.463H871.913V164.592L813.821 3.47891H647.097L571.693 229.679C564.914 217.191 555.542 206.398 543.6 197.376C520.85 180.191 492.577 171.876 467.632 164.542C420.492 150.679 415.333 144.186 415.333 133.622C415.333 129.439 416.485 123.991 425.466 118.959C432.734 114.887 443.081 112.456 453.141 112.456C468.784 112.456 489.446 118.635 498.67 130.443L510.901 146.099L591.497 57.9735L578.686 46.6562C547.064 18.7229 504.19 3.95889 454.701 3.95889C413.658 3.95889 375.453 15.9816 347.122 37.8122C314.642 62.8416 297.473 98.3095 297.473 140.383C297.473 223.138 365.149 244.574 414.562 260.226C452.345 272.192 470.146 279.458 470.146 294.331C470.146 309.288 447.124 316.016 430.777 316.016C408.656 316.016 386.673 305.2 373.408 287.79L361.186 271.75L278.673 362.439L290.902 373.755C327.3 407.436 372.785 424.514 426.096 424.514C458.338 424.514 488.358 417.836 513.113 405.411L506.64 424.828H617.305L609.246 454.727H496.698L431.301 692.598L365.186 454.727H231.752L288.557 664.467H225.268L275.578 809.178H225.268V1064.97H357.86V921.881H372.225C387.693 921.881 408.688 924.645 424.709 939.56C436.864 951.163 446.254 971.052 446.254 994.808C446.254 1018.01 437.416 1036.8 424.709 1047.85C405.925 1064.42 383.274 1064.97 367.805 1064.97H357.86V1177.68H400.4C467.249 1177.68 510.341 1148.39 532.441 1125.74C550.141 1108.04 561.448 1088.64 568.57 1069.22C578.448 1096.51 593.333 1118.97 610.217 1136.18C643.425 1169.97 697.608 1198.52 771.602 1198.52C845.596 1198.52 899.78 1169.97 932.989 1136.18C942.649 1126.33 951.648 1114.76 959.437 1101.55H942.692V896.054H963.188C954.598 880.067 944.244 866.244 932.989 854.772C928.512 850.216 923.64 845.762 918.402 841.452H977.846V896.054H1031.65V1101.55H977.846V1189.78H1115.34V1065.1L1117.68 1063.93C1119.42 1070.34 1121.17 1072.09 1122.92 1076.17L1178.85 1189.78H1308.75V1140.8Z" fill="white"/>
<path d="M697.853 265.517H764.887L729.211 152.835L697.853 265.517ZM773.185 271.593H689.855L728.835 131.52L773.185 271.593ZM769.487 421.789H814.367L788.841 341.173L769.487 421.789ZM822.663 427.865H761.779L788.037 318.5L822.663 427.865ZM760.66 661.205H824.547L791.081 560.515L764.945 648.488L760.66 661.205ZM832.969 667.28H752.2L759.155 646.652L790.756 540.272L832.969 667.28ZM771.603 789.395C808.847 789.395 843.312 796.493 874.168 810.507L859.693 766.955H725.011L715.473 795.247C733.408 791.363 752.264 789.395 771.603 789.395ZM884.471 822.244L877.949 819.021C846.311 803.395 810.531 795.471 771.603 795.471C750.819 795.471 730.621 797.793 711.571 802.371L706.227 803.655L720.647 760.879H864.076L884.471 822.244ZM511.652 845.453C519.119 850.76 526.08 856.595 532.368 862.819C547.312 877.763 559.132 895.513 567.584 915.679C576.984 891.815 590.873 870.148 608.048 852.645C610.761 849.884 613.621 847.157 616.6 844.489H558.073L623.955 669.395H571.121L511.652 845.453ZM567.747 933.211L564.816 925.241C556.565 902.804 544.207 883.251 528.083 867.125C521.533 860.644 514.207 854.587 506.319 849.133L504.435 847.832L566.76 663.319H632.733L566.851 838.415H633.277L626.733 843.799C621.629 847.997 616.801 852.405 612.384 856.903C594.048 875.589 579.577 899.204 570.537 925.189L567.747 933.211ZM1118.38 971.172H1131.66C1143.93 971.172 1153.26 968.483 1159.38 963.179C1162.69 960.277 1168.24 953.617 1168.24 941.583C1168.24 932.865 1165.76 925.111 1161.45 920.309C1155.85 914.015 1148.57 910.829 1139.82 910.829H1118.38V971.172ZM1131.66 977.248H1112.31V904.753H1139.82C1152.98 904.753 1161.31 911.009 1165.97 916.259C1171.35 922.236 1174.31 931.233 1174.31 941.583C1174.31 956.027 1167.46 964.183 1163.37 967.759L1163.36 967.768C1156.1 974.059 1145.44 977.248 1131.66 977.248ZM771.603 920.733C744.865 920.733 729.753 932.547 723.127 939.588C709.972 953.291 701.812 974.809 701.812 995.767C701.812 1017.23 709.756 1037.99 723.063 1051.3C735.264 1063.5 752.503 1070.22 771.603 1070.22C790.704 1070.22 807.94 1063.5 820.143 1051.3C833.647 1037.8 841.392 1017.55 841.392 995.767C841.392 972.713 833.861 952.801 820.188 939.7C813.076 932.588 797.376 920.733 771.603 920.733ZM771.603 1076.3C750.879 1076.3 732.115 1068.95 718.767 1055.6C704.345 1041.17 695.737 1018.81 695.737 995.767C695.737 973.301 704.544 950.171 718.723 935.401C726.001 927.668 742.58 914.657 771.603 914.657C799.565 914.657 816.709 927.627 824.439 935.357C839.273 949.572 847.468 971.041 847.468 995.767C847.468 1019.15 839.073 1040.96 824.439 1055.6C811.089 1068.95 792.325 1076.3 771.603 1076.3ZM360.897 1061.93H367.805C385.389 1061.93 405.583 1060.67 422.7 1045.57C435.744 1034.22 443.216 1015.73 443.216 994.808C443.216 973.907 435.513 954.075 422.612 941.757C410.619 930.593 393.657 924.919 372.225 924.919H360.897V1061.93ZM568.589 1060.34L571.427 1068.18C580.476 1093.19 594.639 1115.97 612.385 1134.05C634.931 1156.99 685.597 1195.48 771.603 1195.48C857.607 1195.48 908.276 1156.99 930.823 1134.05C939.459 1125.25 947.248 1115.36 954.027 1104.59H939.655V893.016H958.028C950.373 879.647 941.236 867.516 930.821 856.9C926.403 852.405 921.575 847.996 916.473 843.799L909.931 838.415H980.884V893.016H1034.69V1104.59H980.884V1186.74H1112.31V1063.22L1119.63 1059.56L1120.61 1063.13C1121.68 1067.08 1122.74 1069.08 1123.86 1071.19C1124.45 1072.3 1125.06 1073.46 1125.68 1074.9L1180.74 1186.74H1305.71V1141.72L1251.48 1060.38C1247.12 1053.59 1240.63 1047.86 1232.18 1043.3L1230.58 1042.45V1034.65L1233.01 1034.16C1254.29 1029.79 1273.19 1018.93 1284.85 1004.36C1298.72 987.563 1305.74 964.888 1305.74 936.921C1305.74 898.711 1293.69 867.287 1269.92 843.52C1235.37 808.972 1193.41 804.209 1153.22 804.209H1004.55L1003.81 802.243L879.903 472.941H979.867L979.591 472.173H1260.92V387.615H1304.45V289.848H1065.22V8.33053H940.911V126.245H963.913V388.501H868.875V165.121L811.687 6.51722H649.287L572.361 237.28L569.023 231.128C562.468 219.049 553.297 208.509 541.768 199.8C519.46 182.947 491.469 174.716 466.775 167.455C420.527 153.856 412.296 146.767 412.296 133.621C412.296 129 413.507 122.176 423.983 116.308C431.684 111.993 442.584 109.417 453.143 109.417C469.521 109.417 491.241 115.997 501.065 128.572L511.084 141.397L587.169 58.2026L576.675 48.9319C545.617 21.4973 503.439 6.9959 454.701 6.9959C414.327 6.9959 376.78 18.7946 348.977 40.2186C317.272 64.6506 300.512 99.2865 300.512 140.383C300.512 220.913 366.961 241.961 415.48 257.328C454.704 269.752 473.184 277.453 473.184 294.331C473.184 312.341 447.172 319.055 430.777 319.055C407.728 319.055 384.82 307.779 370.991 289.629L360.98 276.491L282.948 362.255L292.965 371.524C328.783 404.669 373.573 421.475 426.096 421.475C457.655 421.475 487.273 414.981 511.751 402.695L518.32 399.397L510.855 421.789H621.271L611.575 457.763H499.015L431.317 704L362.877 457.763H235.723L292.528 667.503H229.541L279.851 812.215H228.307V1061.93H354.821V918.843H372.225C395.243 918.843 413.597 925.065 426.78 937.336C440.887 950.803 449.292 972.277 449.292 994.808C449.292 1017.49 441.059 1037.65 426.703 1050.14C406.447 1068.01 381.309 1068.01 367.805 1068.01H360.897V1174.64H400.4C470.088 1174.64 511.677 1142.67 530.267 1123.62C546.116 1107.77 558.035 1089.12 565.717 1068.17L568.589 1060.34ZM771.603 1201.56C683.38 1201.56 631.264 1161.93 608.051 1138.31C591.449 1121.39 577.887 1100.52 568.535 1077.59C560.569 1096.41 549.175 1113.31 534.589 1127.89C515.359 1147.6 472.316 1180.71 400.4 1180.71H354.821V1068.01H222.231V806.14H271.305L220.996 661.428H284.587L227.781 451.687H367.495L431.285 681.195L494.383 451.687H606.919L613.34 427.865H502.424L507.979 411.204C484.004 421.916 455.863 427.551 426.096 427.551C371.995 427.551 325.815 410.201 288.839 375.984L274.399 362.623L361.393 267.007L375.824 285.948C388.528 302.62 409.584 312.977 430.777 312.977C445.428 312.977 467.108 307.052 467.108 294.331C467.108 282.039 451.348 275.063 413.645 263.121C363.336 247.187 294.436 225.363 294.436 140.383C294.436 97.3305 312.013 61.0306 345.269 35.4052C374.128 13.1679 412.992 0.919886 454.701 0.919886C504.943 0.919886 548.512 15.9479 580.697 44.3785L595.825 57.7412L510.719 150.8L496.276 132.312C487.651 121.271 468.048 115.493 453.143 115.493C443.577 115.493 433.787 117.78 426.952 121.609C419.391 125.845 418.372 130.057 418.372 133.621C418.372 141.876 421.744 147.88 468.489 161.625C493.683 169.033 522.239 177.431 545.431 194.952C555.763 202.756 564.315 211.961 570.924 222.379L644.908 0.439906H815.956L874.951 164.06V382.425H957.839V132.321H934.836V2.25322H1071.29V283.772H1310.53V393.691H1267V478.249H988.229L988.507 479.017H888.681L1008.75 798.135H1153.22C1194.72 798.135 1238.11 803.112 1274.22 839.224C1299.17 864.171 1311.81 897.041 1311.81 936.921C1311.81 966.337 1304.33 990.316 1289.56 1008.19C1277.68 1023.04 1258.86 1034.3 1237.57 1039.37C1245.73 1044.18 1252.11 1050.12 1256.57 1057.05L1311.79 1139.88V1192.82H1176.96L1120.13 1077.37C1119.59 1076.12 1119.06 1075.11 1118.49 1074.03C1118.45 1073.97 1118.42 1073.9 1118.38 1073.84V1192.82H974.809V1098.51H1028.62V899.091H974.809V844.489H926.607C929.584 847.157 932.444 849.884 935.157 852.643C947.125 864.843 957.457 878.965 965.864 894.616L968.268 899.091H945.729V1098.51H964.755L962.053 1103.09C954.401 1116.07 945.352 1127.92 935.159 1138.31C911.941 1161.93 859.823 1201.56 771.603 1201.56Z" fill="white"/>
<path d="M1060.94 585.49C1081.71 575.674 1087.44 569.782 1087.44 559.966C1087.44 550.475 1081.88 544.913 1072.23 544.913C1061.26 544.913 1054.88 551.458 1054.88 564.546C1054.88 566.347 1054.88 569.455 1055.37 573.546H1032.14C1031.81 571.091 1031.48 567.002 1031.48 562.747C1031.48 540.003 1044.41 523.806 1073.04 523.806C1099.39 523.806 1113.62 538.367 1113.62 557.675C1113.62 574.855 1104.95 585.818 1078.61 597.762C1061.75 605.451 1060.61 608.07 1060.61 611.997H1115.91V632.939H1030.83C1030.83 606.925 1033.45 598.579 1060.94 585.49Z" fill="white"/>
<path d="M1191.5 578.781C1191.5 556.692 1184.8 544.912 1172.2 544.912C1159.76 544.912 1153.22 556.692 1153.22 578.781C1153.22 600.707 1159.11 613.305 1172.2 613.305C1185.45 613.305 1191.5 600.707 1191.5 578.781ZM1127.2 578.617C1127.2 544.421 1142.26 523.805 1172.2 523.805C1202.3 523.805 1217.52 544.421 1217.52 578.617C1217.52 611.996 1203.78 634.412 1172.2 634.412C1140.95 634.412 1127.2 611.996 1127.2 578.617Z" fill="white"/>
<path d="M1060.94 708.209C1081.71 698.393 1087.44 692.502 1087.44 682.684C1087.44 673.194 1081.88 667.632 1072.23 667.632C1061.26 667.632 1054.88 674.177 1054.88 687.266C1054.88 689.066 1054.88 692.174 1055.37 696.265H1032.14C1031.81 693.81 1031.48 689.72 1031.48 685.466C1031.48 662.722 1044.41 646.525 1073.04 646.525C1099.39 646.525 1113.62 661.088 1113.62 680.393C1113.62 697.574 1104.95 708.537 1078.61 720.481C1061.75 728.17 1060.61 730.789 1060.61 734.716H1115.91V755.658H1030.83C1030.83 729.644 1033.45 721.298 1060.94 708.209Z" fill="white"/>
<path d="M1179.07 713.773V676.468H1178.9L1150.11 713.447V713.773H1179.07ZM1179.07 734.553H1126.22V713.609L1177.76 647.997H1205.41V713.773H1220.46V734.553H1205.41V755.66H1179.07V734.553Z" fill="white"/>
</svg>
