<svg width="110" height="110" viewBox="0 0 110 110" fill="none" xmlns="http://www.w3.org/2000/svg">
<path fill-rule="evenodd" clip-rule="evenodd" d="M11.0001 27.5V71.4999C11.0001 74.4173 12.159 77.2152 14.2219 79.2781C16.2848 81.341 19.0827 82.4999 22.0001 82.4999H49.5001L77 104.5V82.4999H88C90.9174 82.4999 93.7153 81.341 95.7782 79.2781C97.8411 77.2152 99 74.4173 99 71.4999V27.5C99 24.5826 97.8411 21.7847 95.7782 19.7218C93.7153 17.6589 90.9174 16.5 88 16.5H22.0001C19.0827 16.5 16.2848 17.6589 14.2219 19.7218C12.159 21.7847 11.0001 24.5826 11.0001 27.5ZM71.5 44H82.5V54.9999H71.5V44ZM60.5001 44H49.5001V54.9999H60.5001V44ZM27.5001 44H38.5001V54.9999H27.5001V44Z" fill="#ECECEC"/>
</svg>
