<svg width="41" height="41" viewBox="0 0 41 41" fill="none" xmlns="http://www.w3.org/2000/svg">
<circle cx="20.1699" cy="20.6953" r="20" fill="#3C3C3C"/>
<g clip-path="url(#clip0_297_462)">
<path d="M20.1699 10.6953C14.6471 10.6953 10.1699 15.1725 10.1699 20.6953C10.1699 25.3849 13.3987 29.3201 17.7543 30.4009V23.7513H15.6923V20.6953H17.7543V19.3785C17.7543 15.9749 19.2947 14.3973 22.6363 14.3973C23.2699 14.3973 24.3631 14.5217 24.8103 14.6457V17.4157C24.5743 17.3909 24.1643 17.3785 23.6551 17.3785C22.0155 17.3785 21.3819 17.9997 21.3819 19.6145V20.6953H24.6483L24.0871 23.7513H21.3819V30.6221C26.3335 30.0241 30.1703 25.8081 30.1703 20.6953C30.1699 15.1725 25.6927 10.6953 20.1699 10.6953Z" fill="#AFAFAF"/>
</g>
<defs>
<clipPath id="clip0_297_462">
<rect width="20" height="20" fill="white" transform="translate(10.1699 10.6953)"/>
</clipPath>
</defs>
</svg>
