<svg width="50" height="50" viewBox="0 0 50 50" fill="none" xmlns="http://www.w3.org/2000/svg">
<g clip-path="url(#clip0_139_6)">
<path d="M25 50C38.8071 50 50 38.8071 50 25C50 11.1929 38.8071 0 25 0C11.1929 0 0 11.1929 0 25C0 38.8071 11.1929 50 25 50Z" fill="#D9D9D9"/>
<path d="M20.328 29.208C21.864 27.928 23.088 26.864 24 26.016C24.912 25.152 25.672 24.256 26.28 23.328C26.888 22.4 27.192 21.488 27.192 20.592C27.192 19.776 27 19.136 26.616 18.672C26.232 18.208 25.64 17.976 24.84 17.976C24.04 17.976 23.424 18.248 22.992 18.792C22.56 19.32 22.336 20.048 22.32 20.976H19.056C19.12 19.056 19.688 17.6 20.76 16.608C21.848 15.616 23.224 15.12 24.888 15.12C26.712 15.12 28.112 15.608 29.088 16.584C30.064 17.544 30.552 18.816 30.552 20.4C30.552 21.648 30.216 22.84 29.544 23.976C28.872 25.112 28.104 26.104 27.24 26.952C26.376 27.784 25.248 28.792 23.856 29.976H30.936V32.76H19.08V30.264L20.328 29.208Z" fill="black"/>
</g>
<defs>
<clipPath id="clip0_139_6">
<rect width="50" height="50" fill="white"/>
</clipPath>
</defs>
</svg>
