<svg width="50" height="50" viewBox="0 0 50 50" fill="none" xmlns="http://www.w3.org/2000/svg">
<g clip-path="url(#clip0_139_9)">
<path d="M25 50C38.8071 50 50 38.8071 50 25C50 11.1929 38.8071 0 25 0C11.1929 0 0 11.1929 0 25C0 38.8071 11.1929 50 25 50Z" fill="#D9D9D9"/>
<path d="M19.32 20.112C19.4 18.512 19.96 17.28 21 16.416C22.056 15.536 23.44 15.096 25.152 15.096C26.32 15.096 27.32 15.304 28.152 15.72C28.984 16.12 29.608 16.672 30.024 17.376C30.456 18.064 30.672 18.848 30.672 19.728C30.672 20.736 30.408 21.592 29.88 22.296C29.368 22.984 28.752 23.448 28.032 23.688V23.784C28.96 24.072 29.68 24.584 30.192 25.32C30.72 26.056 30.984 27 30.984 28.152C30.984 29.112 30.76 29.968 30.312 30.72C29.88 31.472 29.232 32.064 28.368 32.496C27.52 32.912 26.496 33.12 25.296 33.12C23.488 33.12 22.016 32.664 20.88 31.752C19.744 30.84 19.144 29.496 19.08 27.72H22.344C22.376 28.504 22.64 29.136 23.136 29.616C23.648 30.08 24.344 30.312 25.224 30.312C26.04 30.312 26.664 30.088 27.096 29.64C27.544 29.176 27.768 28.584 27.768 27.864C27.768 26.904 27.464 26.216 26.856 25.8C26.248 25.384 25.304 25.176 24.024 25.176H23.328V22.416H24.024C26.296 22.416 27.432 21.656 27.432 20.136C27.432 19.448 27.224 18.912 26.808 18.528C26.408 18.144 25.824 17.952 25.056 17.952C24.304 17.952 23.72 18.16 23.304 18.576C22.904 18.976 22.672 19.488 22.608 20.112H19.32Z" fill="black"/>
</g>
<defs>
<clipPath id="clip0_139_9">
<rect width="50" height="50" fill="white"/>
</clipPath>
</defs>
</svg>
