<svg width="80" height="80" viewBox="0 0 80 80" fill="none" xmlns="http://www.w3.org/2000/svg">
<circle cx="40" cy="40" r="40" fill="url(#paint0_linear_512_973)"/>
<path d="M27.448 31.848C27.576 28.424 28.696 25.784 30.808 23.928C32.92 22.072 35.784 21.144 39.4 21.144C41.8 21.144 43.848 21.56 45.544 22.392C47.272 23.224 48.568 24.36 49.432 25.8C50.328 27.24 50.776 28.856 50.776 30.648C50.776 32.76 50.248 34.488 49.192 35.832C48.136 37.144 46.904 38.04 45.496 38.52V38.712C47.32 39.32 48.76 40.328 49.816 41.736C50.872 43.144 51.4 44.952 51.4 47.16C51.4 49.144 50.936 50.904 50.008 52.44C49.112 53.944 47.784 55.128 46.024 55.992C44.296 56.856 42.232 57.288 39.832 57.288C35.992 57.288 32.92 56.344 30.616 54.456C28.344 52.568 27.144 49.72 27.016 45.912H34.984C35.016 47.32 35.416 48.44 36.184 49.272C36.952 50.072 38.072 50.472 39.544 50.472C40.792 50.472 41.752 50.12 42.424 49.416C43.128 48.68 43.48 47.72 43.48 46.536C43.48 45 42.984 43.896 41.992 43.224C41.032 42.52 39.48 42.168 37.336 42.168H35.8V35.496H37.336C38.968 35.496 40.28 35.224 41.272 34.68C42.296 34.104 42.808 33.096 42.808 31.656C42.808 30.504 42.488 29.608 41.848 28.968C41.208 28.328 40.328 28.008 39.208 28.008C37.992 28.008 37.08 28.376 36.472 29.112C35.896 29.848 35.56 30.76 35.464 31.848H27.448Z" fill="#E7E7E7"/>
<defs>
<linearGradient id="paint0_linear_512_973" x1="40" y1="0" x2="40" y2="80" gradientUnits="userSpaceOnUse">
<stop stop-color="#EE3945"/>
<stop offset="0.56" stop-color="#D3303A"/>
<stop offset="1" stop-color="#98252C"/>
</linearGradient>
</defs>
</svg>
