<svg width="80" height="80" viewBox="0 0 80 80" fill="none" xmlns="http://www.w3.org/2000/svg">
<circle cx="40" cy="40" r="40" fill="url(#paint0_linear_512_970)"/>
<path d="M27.872 50.424C28.96 49.56 29.456 49.16 29.36 49.224C32.496 46.632 34.96 44.504 36.752 42.84C38.576 41.176 40.112 39.432 41.36 37.608C42.608 35.784 43.232 34.008 43.232 32.28C43.232 30.968 42.928 29.944 42.32 29.208C41.712 28.472 40.8 28.104 39.584 28.104C38.368 28.104 37.408 28.568 36.704 29.496C36.032 30.392 35.696 31.672 35.696 33.336H27.776C27.84 30.616 28.416 28.344 29.504 26.52C30.624 24.696 32.08 23.352 33.872 22.488C35.696 21.624 37.712 21.192 39.92 21.192C43.728 21.192 46.592 22.168 48.512 24.12C50.464 26.072 51.44 28.616 51.44 31.752C51.44 35.176 50.272 38.36 47.936 41.304C45.6 44.216 42.624 47.064 39.008 49.848H51.968V56.52H27.872V50.424Z" fill="#E7E7E7"/>
<defs>
<linearGradient id="paint0_linear_512_970" x1="40" y1="0" x2="40" y2="80" gradientUnits="userSpaceOnUse">
<stop stop-color="#EE3945"/>
<stop offset="0.56" stop-color="#D3303A"/>
<stop offset="1" stop-color="#98252C"/>
</linearGradient>
</defs>
</svg>
