<svg width="41" height="41" viewBox="0 0 41 41" fill="none" xmlns="http://www.w3.org/2000/svg">
<circle cx="20.1699" cy="20.6953" r="20" fill="#3C3C3C"/>
<g clip-path="url(#clip0_297_452)">
<path d="M20.1699 12.4961C22.8418 12.4961 23.1582 12.5078 24.209 12.5547C25.1855 12.5977 25.7129 12.7617 26.0645 12.8984C26.5293 13.0781 26.8652 13.2969 27.2129 13.6445C27.5645 13.9961 27.7793 14.3281 27.959 14.793C28.0957 15.1445 28.2598 15.6758 28.3027 16.6484C28.3496 17.7031 28.3613 18.0195 28.3613 20.6875C28.3613 23.3594 28.3496 23.6758 28.3027 24.7266C28.2598 25.7031 28.0957 26.2305 27.959 26.582C27.7793 27.0469 27.5605 27.3828 27.2129 27.7305C26.8613 28.082 26.5293 28.2969 26.0645 28.4766C25.7129 28.6133 25.1816 28.7773 24.209 28.8203C23.1543 28.8672 22.8379 28.8789 20.1699 28.8789C17.498 28.8789 17.1816 28.8672 16.1309 28.8203C15.1543 28.7773 14.627 28.6133 14.2754 28.4766C13.8105 28.2969 13.4746 28.0781 13.127 27.7305C12.7754 27.3789 12.5605 27.0469 12.3809 26.582C12.2441 26.2305 12.0801 25.6992 12.0371 24.7266C11.9902 23.6719 11.9785 23.3555 11.9785 20.6875C11.9785 18.0156 11.9902 17.6992 12.0371 16.6484C12.0801 15.6719 12.2441 15.1445 12.3809 14.793C12.5605 14.3281 12.7793 13.9922 13.127 13.6445C13.4785 13.293 13.8105 13.0781 14.2754 12.8984C14.627 12.7617 15.1582 12.5977 16.1309 12.5547C17.1816 12.5078 17.498 12.4961 20.1699 12.4961ZM20.1699 10.6953C17.4551 10.6953 17.1152 10.707 16.0488 10.7539C14.9863 10.8008 14.2559 10.9727 13.623 11.2188C12.9629 11.4766 12.4043 11.8164 11.8496 12.375C11.291 12.9297 10.9512 13.4883 10.6934 14.1445C10.4473 14.7813 10.2754 15.5078 10.2285 16.5703C10.1816 17.6406 10.1699 17.9805 10.1699 20.6953C10.1699 23.4102 10.1816 23.75 10.2285 24.8164C10.2754 25.8789 10.4473 26.6094 10.6934 27.2422C10.9512 27.9023 11.291 28.4609 11.8496 29.0156C12.4043 29.5703 12.9629 29.9141 13.6191 30.168C14.2559 30.4141 14.9824 30.5859 16.0449 30.6328C17.1113 30.6797 17.4512 30.6914 20.166 30.6914C22.8809 30.6914 23.2207 30.6797 24.2871 30.6328C25.3496 30.5859 26.0801 30.4141 26.7129 30.168C27.3691 29.9141 27.9277 29.5703 28.4824 29.0156C29.0371 28.4609 29.3809 27.9023 29.6348 27.2461C29.8809 26.6094 30.0527 25.8828 30.0996 24.8203C30.1465 23.7539 30.1582 23.4141 30.1582 20.6992C30.1582 17.9844 30.1465 17.6445 30.0996 16.5781C30.0527 15.5156 29.8809 14.7852 29.6348 14.1523C29.3887 13.4883 29.0488 12.9297 28.4902 12.375C27.9355 11.8203 27.377 11.4766 26.7207 11.2227C26.084 10.9766 25.3574 10.8047 24.2949 10.7578C23.2246 10.707 22.8848 10.6953 20.1699 10.6953Z" fill="#AFAFAF"/>
<path d="M20.1699 15.5586C17.334 15.5586 15.0332 17.8594 15.0332 20.6953C15.0332 23.5312 17.334 25.832 20.1699 25.832C23.0059 25.832 25.3066 23.5312 25.3066 20.6953C25.3066 17.8594 23.0059 15.5586 20.1699 15.5586ZM20.1699 24.0273C18.3301 24.0273 16.8379 22.5352 16.8379 20.6953C16.8379 18.8555 18.3301 17.3633 20.1699 17.3633C22.0098 17.3633 23.502 18.8555 23.502 20.6953C23.502 22.5352 22.0098 24.0273 20.1699 24.0273Z" fill="#AFAFAF"/>
<path d="M26.709 15.3555C26.709 16.0195 26.1699 16.5547 25.5098 16.5547C24.8457 16.5547 24.3105 16.0156 24.3105 15.3555C24.3105 14.6914 24.8496 14.1562 25.5098 14.1562C26.1699 14.1562 26.709 14.6953 26.709 15.3555Z" fill="#AFAFAF"/>
</g>
<defs>
<clipPath id="clip0_297_452">
<rect width="20" height="20" fill="white" transform="translate(10.1699 10.6953)"/>
</clipPath>
</defs>
</svg>
