<svg width="41" height="41" viewBox="0 0 41 41" fill="none" xmlns="http://www.w3.org/2000/svg">
<circle cx="20.1699" cy="20.6953" r="20" fill="#3C3C3C"/>
<g clip-path="url(#clip0_297_482)">
<path d="M20.1699 10.6953C14.6465 10.6953 10.1699 15.1719 10.1699 20.6953C10.1699 24.9336 12.8066 28.5508 16.5254 30.0078C16.4395 29.2148 16.3574 28.0039 16.5605 27.1406C16.7441 26.3594 17.7324 22.1719 17.7324 22.1719C17.7324 22.1719 17.4316 21.5742 17.4316 20.6875C17.4316 19.2969 18.2363 18.2578 19.2402 18.2578C20.0918 18.2578 20.5059 18.8984 20.5059 19.668C20.5059 20.5273 19.959 21.8086 19.6777 22.9961C19.4434 23.9922 20.1777 24.8047 21.1582 24.8047C22.9355 24.8047 24.3027 22.9297 24.3027 20.2266C24.3027 17.832 22.584 16.1562 20.127 16.1562C17.2832 16.1562 15.6113 18.2891 15.6113 20.4961C15.6113 21.3555 15.9434 22.2773 16.3574 22.7773C16.4395 22.875 16.4512 22.9648 16.4277 23.0625C16.3535 23.3789 16.1816 24.0586 16.1504 24.1953C16.1074 24.3789 16.0059 24.418 15.8145 24.3281C14.5645 23.7461 13.7832 21.9219 13.7832 20.4531C13.7832 17.2969 16.0762 14.4023 20.3887 14.4023C23.8574 14.4023 26.5527 16.875 26.5527 20.1797C26.5527 23.625 24.3809 26.3984 21.3652 26.3984C20.3535 26.3984 19.4004 25.8711 19.0723 25.25C19.0723 25.25 18.5723 27.1602 18.4512 27.6289C18.2246 28.4961 17.6152 29.5859 17.209 30.25C18.1465 30.5391 19.1387 30.6953 20.1699 30.6953C25.6934 30.6953 30.1699 26.2187 30.1699 20.6953C30.1699 15.1719 25.6934 10.6953 20.1699 10.6953Z" fill="#AFAFAF"/>
</g>
<defs>
<clipPath id="clip0_297_482">
<rect width="20" height="20" fill="white" transform="translate(10.1699 10.6953)"/>
</clipPath>
</defs>
</svg>
