<svg width="46" height="46" viewBox="0 0 46 46" fill="none" xmlns="http://www.w3.org/2000/svg">
<g clip-path="url(#clip0_297_395)">
<path d="M21.8977 41.1079C12.0889 41.1079 4.10938 33.1284 4.10938 23.3196C4.10938 13.5108 12.0889 5.53125 21.8977 5.53125C23.5944 5.53125 25.2738 5.77 26.8879 6.24115C27.4362 6.40092 27.7503 6.97465 27.5905 7.52296C27.4308 8.07127 26.8561 8.38537 26.3087 8.2256C24.8826 7.80983 23.3983 7.59831 21.8977 7.59831C13.2291 7.59831 6.17734 14.651 6.17734 23.3187C6.17734 31.9864 13.23 39.0391 21.8977 39.0391C30.5654 39.0391 37.619 31.9882 37.619 23.3196C37.619 22.006 37.4565 20.7006 37.137 19.4397C36.9962 18.8859 37.3312 18.324 37.8841 18.1833C38.4369 18.0426 38.9998 18.3775 39.1405 18.9304C39.5027 20.3574 39.6861 21.8335 39.6861 23.3187C39.6861 33.1284 31.7065 41.1079 21.8977 41.1079Z" fill="white"/>
<path d="M35.4217 15.9974C34.8507 15.9974 34.3877 15.5344 34.3877 14.9634V5.31621C34.3877 4.7452 34.8507 4.28223 35.4217 4.28223C35.9927 4.28223 36.4557 4.7452 36.4557 5.31621V14.9643C36.4557 15.5344 35.9927 15.9974 35.4217 15.9974Z" fill="white"/>
<path d="M40.2465 11.1734H30.5984C30.0274 11.1734 29.5645 10.7105 29.5645 10.1395C29.5645 9.56845 30.0274 9.10547 30.5984 9.10547H40.2465C40.8175 9.10547 41.2805 9.56845 41.2805 10.1395C41.2796 10.7114 40.8175 11.1734 40.2465 11.1734Z" fill="white"/>
<path d="M14.8294 29.623V20.3816C13.11 21.7016 11.9517 22.3615 11.3562 22.3615C11.072 22.3615 10.8197 22.2481 10.6 22.0211C10.3803 21.7942 10.2695 21.5318 10.2695 21.2341C10.2695 20.8882 10.3776 20.6349 10.5945 20.4724C10.8115 20.3099 11.1937 20.1002 11.742 19.8424C12.5608 19.4566 13.2163 19.0508 13.7074 18.6241C14.1985 18.1975 14.6333 17.72 15.0128 17.1916C15.3922 16.6633 15.6392 16.3383 15.7545 16.2166C15.8698 16.095 16.0858 16.0342 16.4044 16.0342C16.763 16.0342 17.0508 16.1731 17.2678 16.4509C17.4847 16.7286 17.5928 17.1108 17.5928 17.5983V29.2263C17.5928 30.5871 17.1289 31.2671 16.2011 31.2671C15.788 31.2671 15.4558 31.1282 15.2061 30.8504C14.9547 30.5744 14.8294 30.165 14.8294 29.623Z" fill="white"/>
<path d="M21.0464 19.9046C21.0464 19.2274 21.2307 18.5892 21.6001 17.99C21.9687 17.3909 22.5107 16.9125 23.2251 16.553C23.9395 16.1944 24.7738 16.0146 25.7288 16.0146C26.534 16.0146 27.2421 16.12 27.8512 16.3297C28.4604 16.5394 28.9687 16.8289 29.3745 17.1984C29.7803 17.567 30.0817 17.9837 30.2787 18.4476C30.4748 18.9114 30.5728 19.4044 30.5728 19.9255C30.5728 20.5891 30.4022 21.1818 30.0599 21.7029C29.7177 22.224 29.2084 22.6507 28.5312 22.982C29.1067 23.2053 29.5842 23.4986 29.9628 23.8608C30.3422 24.223 30.6282 24.6433 30.8207 25.1199C31.014 25.5974 31.1102 26.1266 31.1102 26.7094C31.1102 27.5628 30.9033 28.3362 30.4911 29.0298C30.0781 29.7233 29.4717 30.2671 28.6737 30.6602C27.8748 31.0524 26.9335 31.2493 25.8505 31.2493C24.7266 31.2493 23.7652 31.0524 22.9664 30.6602C22.1675 30.2671 21.5647 29.7279 21.1589 29.0407C20.7532 28.3535 20.5498 27.5837 20.5498 26.7303C20.5498 24.9093 21.4095 23.6601 23.1298 22.9829C21.7408 22.332 21.0464 21.3062 21.0464 19.9046ZM28.3278 26.6277C28.3278 26.0994 28.2198 25.6391 28.0028 25.247C27.7859 24.8539 27.4818 24.5534 27.0887 24.3428C26.6956 24.1331 26.2562 24.0278 25.7687 24.0278C25.0779 24.0278 24.4996 24.2584 24.0321 24.7186C23.5646 25.1789 23.3313 25.8225 23.3313 26.6486C23.3313 27.177 23.4411 27.6427 23.6608 28.0448C23.8805 28.4479 24.1801 28.7593 24.5596 28.9789C24.939 29.1986 25.3621 29.3085 25.8287 29.3085C26.3025 29.3085 26.7292 29.1968 27.1078 28.9735C27.4872 28.7502 27.785 28.4352 28.0019 28.0294C28.2198 27.6227 28.3278 27.1561 28.3278 26.6277ZM25.7896 17.9555C25.1533 17.9555 24.6404 18.1534 24.2509 18.5492C23.8615 18.945 23.6672 19.4543 23.6672 20.078C23.6672 20.6535 23.8669 21.1328 24.2663 21.515C24.6658 21.8972 25.1805 22.0887 25.8105 22.0887C26.1282 22.0887 26.4178 22.0379 26.6784 21.9362C26.9389 21.8346 27.1622 21.6938 27.3483 21.515C27.5344 21.3362 27.6779 21.1228 27.7795 20.875C27.8812 20.6281 27.932 20.3557 27.932 20.058C27.932 19.6586 27.8422 19.3 27.6633 18.9813C27.4836 18.6627 27.2312 18.4121 26.9071 18.2297C26.5812 18.0463 26.209 17.9555 25.7896 17.9555Z" fill="white"/>
</g>
<defs>
<clipPath id="clip0_297_395">
<rect width="45.39" height="45.39" fill="white"/>
</clipPath>
</defs>
</svg>
