<svg width="47" height="46" viewBox="0 0 47 46" fill="none" xmlns="http://www.w3.org/2000/svg">
<g clip-path="url(#clip0_297_422)">
<g clip-path="url(#clip1_297_422)">
<path d="M6.51732 22.8023H9.44497V27.0008H8.48452V25.6936C8.22035 26.1248 8.10052 26.2809 7.86086 26.4852C7.30892 26.9654 6.63715 27.2169 5.91726 27.2169C3.95006 27.2169 2.41406 25.2969 2.41406 22.8259C2.41406 20.3303 3.93735 18.3867 5.89366 18.3867C6.69706 18.3867 7.64481 18.6146 8.41281 19.8501V18.542H9.30063V21.229H8.37649C8.25666 20.7615 8.11232 20.461 7.89627 20.1978C7.41604 19.6095 6.76878 19.2736 6.09701 19.2736C5.05304 19.2736 3.55335 20.1615 3.55335 22.7768C3.55335 24.804 4.64543 26.3154 6.10881 26.3154C7.17638 26.3154 8.18404 25.4394 8.4237 24.3119C8.46001 24.144 8.47181 23.976 8.48361 23.6284H6.51732V22.8023Z" fill="white"/>
<path d="M16.6535 27.0009H14.8297V25.8607C14.3141 26.6651 13.6178 27.1208 12.6709 27.1208C11.4717 27.1208 10.5957 26.2929 10.5957 25.1772C10.5957 23.9535 11.6751 23.3416 14.2187 23.1019C14.3032 23.0901 14.5664 23.0665 14.8188 23.042V22.382C14.8188 21.6504 14.255 21.1946 13.3672 21.1946C12.4313 21.1946 12.0119 21.5069 11.8194 22.3348H10.8481C10.9915 21.6876 11.184 21.3508 11.568 21.0158C12.0001 20.6563 12.6001 20.4639 13.2955 20.4639C14.6154 20.4639 15.7429 21.0757 15.7429 22.6952V26.2466H16.6544V27.0009H16.6535ZM14.8179 23.702L14.2296 23.7737C12.2624 24.0134 11.6025 24.3738 11.6025 25.189C11.6025 25.8607 12.1907 26.4127 12.9342 26.4127C14.0744 26.4127 14.8179 25.3333 14.8179 24.7451V23.702Z" fill="white"/>
<path d="M19.3231 21.7585C19.6109 21.3146 20.1874 20.4268 21.363 20.4268C22.2145 20.4268 22.7065 20.8707 22.8626 21.7703C23.115 21.3391 23.2348 21.183 23.4745 20.9787C23.8939 20.6065 24.3505 20.4268 24.8544 20.4268C25.8384 20.4268 26.414 21.0622 26.414 22.1779V26.2448H27.3018V27.0001H25.4907V22.5138C25.4907 21.6142 25.1911 21.2057 24.5666 21.2057C23.4509 21.2057 22.8635 22.5492 22.8635 22.9813V26.2439H23.7868V26.9992H21.9394V22.3685C21.9394 21.5651 21.6398 21.2047 21.0153 21.2047C20.0194 21.2047 19.3122 22.4403 19.3122 23.0285V26.2439H20.2237V26.9992H17.4521V26.2439H18.3881V21.301H17.4521V20.533H19.324V21.7585H19.3231Z" fill="white"/>
<path d="M28.26 18.1719H30.0593V21.9029C30.2989 21.4472 31.0433 20.475 32.1708 20.475C33.6224 20.475 34.7263 21.9501 34.7263 23.8456C34.7263 25.6086 33.5507 27.0847 32.1472 27.0847C31.007 27.0847 30.456 26.3294 30.0602 25.7892V27.0011H28.2246V26.2458H29.136V18.9281H28.26V18.1719ZM30.0602 24.2777C30.0602 25.3453 30.9244 26.2931 31.9076 26.2931C33.0114 26.2931 33.7186 25.2972 33.7186 23.7503C33.7186 22.2624 33.0114 21.243 31.943 21.243C31.007 21.243 30.0593 22.2869 30.0593 23.1984V24.2777H30.0602Z" fill="white"/>
<path d="M35.4571 18.1719H37.2927V26.2458H38.156V27.0011H35.4453V26.2458H36.3685V18.9281H35.4571V18.1719Z" fill="white"/>
<path d="M44.3926 25.2263C44.261 25.6702 44.1166 25.9344 43.877 26.2094C43.3613 26.8095 42.6533 27.1336 41.8499 27.1336C40.0987 27.1336 38.875 25.7664 38.875 23.7992C38.875 21.9037 40.0987 20.4521 41.6937 20.4521C43.3014 20.4521 44.5369 21.7004 44.5369 23.9553H39.8699C39.9535 24.9031 40.1695 25.4305 40.6134 25.8626C40.9493 26.1867 41.3451 26.3429 41.8253 26.3429C42.5688 26.3429 43.0246 26.007 43.3486 25.2272H44.3926V25.2263ZM43.4685 23.2464C43.3967 22.443 43.2161 21.999 42.8448 21.6396C42.557 21.3754 42.1966 21.2438 41.7772 21.2438C40.9974 21.2438 40.3493 21.7721 40.0615 22.6236C40.0134 22.7788 39.9535 23.0194 39.9299 23.2473H43.4685V23.2464Z" fill="white"/>
<path d="M5.41343 28.5391H7.44055L9.76815 35.6172H10.4045V36.997H8.46001L7.90807 35.1615H4.93321L4.38126 36.997H2.41406V35.6172H3.06223L5.41343 28.5391ZM6.43289 30.1223L5.30541 33.8651H7.53678L6.43289 30.1223Z" fill="white"/>
<path d="M10.3555 30.5781H12.9227V31.8254H12.2755L13.1624 35.6046L14.2191 30.5781H15.874L16.9416 35.5447L17.7931 31.8254H17.1694V30.5781H19.7494V31.8254H19.1974L17.8176 36.9963H16.1136L15.0461 32.5335L14.0384 36.9963H12.3109L10.8956 31.8254H10.3555V30.5781Z" fill="white"/>
<path d="M25.819 35.7479H26.371V36.9962H24.3793V36.2409C23.7193 36.9008 23.2273 37.1287 22.4357 37.1287C21.152 37.1287 20.168 36.2645 20.168 35.1252C20.168 33.2415 22.2913 33.0372 24.3429 32.8457C24.3311 31.8616 24.0906 31.6102 23.1555 31.6102C22.4956 31.6102 22.0399 31.9824 22.0035 32.5815L20.4439 32.5334C20.5275 31.2498 21.5596 30.4219 23.0829 30.4219C24.8586 30.4219 25.8181 31.2262 25.8181 32.6896V35.7479H25.819ZM24.3193 33.9614C22.8078 34.1048 21.8238 34.2374 21.8238 35.1252C21.8238 35.6526 22.2432 36.0003 22.8796 36.0003C23.6957 36.0003 24.3193 35.3885 24.3193 34.585V33.9614Z" fill="white"/>
<path d="M29.6814 31.5739C30.1017 30.7578 30.5692 30.4219 31.2891 30.4219C31.5052 30.4219 31.6967 30.4455 32.009 30.5063V32.006C31.7212 31.9461 31.4934 31.9216 31.2292 31.9216C30.3895 31.9216 29.6814 32.5216 29.6814 33.2533V35.7479H30.4494V36.9962H27.4863V35.7479H28.11V31.8253H27.4981V30.578H29.6814V31.5739Z" fill="white"/>
<path d="M38.4634 34.8849C38.1756 36.2765 37.0118 37.1398 35.4522 37.1398C33.653 37.1398 32.333 35.7364 32.333 33.7692C32.333 31.8256 33.6648 30.3867 35.464 30.3867C36.4835 30.3867 37.3831 30.8669 37.935 31.6949C38.5233 32.5945 38.5469 33.446 38.5705 34.0942H33.9398C34.096 35.7618 35.1871 35.8453 35.4876 35.8453C36.1231 35.8453 36.5434 35.5457 36.7948 34.8858H38.4634V34.8849ZM36.8194 32.9894C36.7113 32.1733 36.2193 31.7303 35.464 31.7303C34.7677 31.7303 34.2285 32.1978 34.0242 32.9894H36.8194Z" fill="white"/>
<path d="M2.43767 8.25H5.66489C7.10467 8.25 7.6439 8.29811 8.05241 8.47786C8.61615 8.71752 9.34784 9.40109 9.34784 10.5168C9.34784 11.3683 9.07187 11.7886 8.25576 12.2325C9.2153 12.6292 9.65921 13.2284 9.65921 14.3441C9.65921 15.7602 8.56713 16.7071 6.93581 16.7071H2.41406V15.3272H3.07403V9.62895H2.43857V8.25H2.43767ZM4.80158 9.62895V11.6806H6.4692C7.18909 11.6806 7.68112 11.2367 7.68112 10.6012C7.68112 10.0375 7.12918 9.62986 6.34938 9.62986H4.80158V9.62895ZM4.80158 13.0123V15.3281H6.57723C7.33252 15.3281 7.92078 14.8361 7.92078 14.1879C7.92078 13.4798 7.32072 13.0123 6.40929 13.0123H4.80158Z" fill="white"/>
<path d="M16.7417 14.5958C16.4539 15.9875 15.2901 16.8508 13.7305 16.8508C11.9313 16.8508 10.6113 15.4473 10.6113 13.4801C10.6113 11.5365 11.9431 10.0977 13.7423 10.0977C14.7618 10.0977 15.6614 10.5779 16.2134 11.4058C16.8007 12.3054 16.8252 13.1569 16.8488 13.8051H12.2181C12.3743 15.4727 13.4655 15.5563 13.765 15.5563C14.4014 15.5563 14.8208 15.2567 15.0732 14.5967H16.7417V14.5958ZM15.0977 12.7003C14.9896 11.8842 14.4976 11.4412 13.7423 11.4412C13.046 11.4412 12.5068 11.9087 12.3026 12.7003H15.0977Z" fill="white"/>
</g>
</g>
<defs>
<clipPath id="clip0_297_422">
<rect width="45.39" height="45.39" fill="white" transform="translate(0.780273)"/>
</clipPath>
<clipPath id="clip1_297_422">
<rect width="45.39" height="45.39" fill="white" transform="translate(0.780273)"/>
</clipPath>
</defs>
</svg>
