<svg width="46" height="46" viewBox="0 0 46 46" fill="none" xmlns="http://www.w3.org/2000/svg">
<g clip-path="url(#clip0_297_404)">
<g clip-path="url(#clip1_297_404)">
<path d="M11.5069 38.7252C11.4343 40.3756 10.3313 41.4477 8.85702 41.4477C8.08358 41.4477 7.41907 41.1491 6.89345 40.5572C6.45589 40.0679 6.22168 39.4324 6.22168 38.7171C6.22168 37.9944 6.49856 37.3299 7.03235 36.8043C7.53617 36.3005 8.1562 36.0518 8.91603 36.0518C9.97452 36.0518 10.7925 36.5701 11.1937 37.4679H10.2668C9.92369 37.0304 9.44165 36.8043 8.85793 36.8043C8.36863 36.8043 7.91654 36.9941 7.57339 37.3445C7.20846 37.7167 7.0042 38.2278 7.0042 38.7243C7.0042 39.2717 7.19393 39.7683 7.52982 40.1187C7.88749 40.4909 8.3768 40.7024 8.85884 40.7024C9.63955 40.7024 10.2532 40.2857 10.6472 39.4542H8.2951V38.7243H11.5069V38.7252Z" fill="white"/>
<path d="M12.3147 41.3461H11.5186L13.5484 36.1553H14.2792L16.3081 41.3461H15.4829L14.9137 39.8355H12.8993L12.3147 41.3461ZM13.9142 37.1339L13.1698 39.1047H14.645L13.9142 37.1339Z" fill="white"/>
<path d="M16.5918 41.3461V36.1553H17.7084L19.2126 40.1705L20.7168 36.1553H21.8189V41.3461H21.1108L21.1617 36.8416L19.4759 41.3461H18.943L17.2645 36.8416L17.3153 41.3461H16.5918Z" fill="white"/>
<path d="M25.1234 41.4478C24.3563 41.4478 23.7072 41.1636 23.1961 40.6235C22.7068 40.1052 22.459 39.4624 22.459 38.6962C22.459 37.9809 22.7295 37.3237 23.2479 36.8198C23.759 36.316 24.4017 36.0527 25.1388 36.0527C26.3507 36.0527 27.3865 36.8489 27.7233 38.1261H26.3507C26.0738 37.6151 25.6572 37.3445 25.1461 37.3445C24.3717 37.3445 23.7662 37.9428 23.7662 38.7026C23.7662 39.5269 24.4089 40.1623 25.1243 40.1623C25.6136 40.1623 26.0439 39.8991 26.3217 39.4179H27.7015C27.3566 40.6816 26.3716 41.4478 25.1234 41.4478Z" fill="white"/>
<path d="M28.9818 41.3461H27.5947L29.5873 36.1553H30.6241L32.6167 41.3461H31.215L30.959 40.5944H29.2442L28.9818 41.3461ZM30.1057 37.8565L29.5873 39.5205H30.6168L30.1057 37.8565Z" fill="white"/>
<path d="M32.7178 41.3461V36.1553H34.4408C34.9882 36.1553 35.4049 36.1916 35.7553 36.4394C36.2155 36.7608 36.4561 37.2492 36.4561 37.8919C36.4561 38.7316 36.0176 39.3589 35.2805 39.5632L36.5505 41.3443H34.9809L33.9878 39.673V41.3443H32.7178V41.3461ZM34.2365 38.5501C34.8647 38.5501 35.1707 38.3894 35.1707 37.9219C35.1707 37.4906 34.901 37.3164 34.3391 37.3164H33.9887V38.5501H34.2365Z" fill="white"/>
<path d="M37.126 41.3461V36.1553H39.9438V37.3018H38.396V38.1406H39.9438V39.2935H38.396V40.1986H39.9438V41.3443H37.126V41.3461Z" fill="white"/>
<path d="M39.0233 21.8989C38.8844 21.8199 38.7301 21.7673 38.5658 21.7446C38.5268 21.7382 38.4886 21.7364 38.4496 21.7328C38.4287 21.7319 38.4087 21.7264 38.387 21.7264H38.328C38.2753 21.7255 38.2236 21.7228 38.1718 21.7264H28.0226C27.3045 21.7264 26.7217 22.3083 26.7217 23.0264C26.7217 23.7445 27.3045 24.3273 28.0226 24.3273H31.9661C32.0959 24.3282 32.2012 24.4344 32.2012 24.5642C32.2012 24.6396 32.1613 24.7013 32.1068 24.7449C29.9444 25.8996 27.1638 26.5995 24.1209 26.5995C23.3801 26.5995 22.6566 26.5559 21.9521 26.477V29.4291C22.5658 29.4745 23.1895 29.4999 23.8222 29.4999C28.0571 29.4999 31.9089 28.465 34.7966 26.7729L34.7975 26.7765C34.8329 26.7575 34.8738 26.7466 34.9164 26.7466C35.0581 26.7466 35.1724 26.861 35.1724 27.0026C35.1724 27.028 35.1679 27.0534 35.1597 27.077L34.5579 28.7111C34.241 29.5707 34.6813 30.5239 35.541 30.8398C35.7298 30.9097 35.9232 30.9424 36.1138 30.9424C36.7883 30.9424 37.4229 30.5276 37.6698 29.8567L39.8467 23.9487C40.1408 23.1481 39.7723 22.2711 39.0233 21.8989Z" fill="white"/>
<path d="M24.1199 10.7432C27.1865 10.7432 29.9934 11.4495 32.163 12.6205C32.163 12.6205 33.5411 13.6118 34.1965 12.6605C34.9491 11.5684 33.4466 10.8884 33.4466 10.8884C30.755 9.62205 27.4252 8.87402 23.8212 8.87402C23.1885 8.87402 22.5658 8.89944 21.9512 8.94483V10.8657C22.6556 10.7868 23.38 10.7432 24.1199 10.7432Z" fill="white"/>
<path d="M8.53529 3.94238C7.26891 3.94238 6.24219 4.9691 6.24219 6.23549V31.259C6.24219 32.5263 7.26891 33.5521 8.53529 33.5521H21.9508V29.4298C13.8786 28.8397 7.60933 24.4804 7.60933 19.1871C7.60933 13.8937 13.8786 9.53443 21.9508 8.94436V3.94238H8.53529Z" fill="white"/>
<path d="M11.6729 18.6715C11.6729 22.5777 16.112 25.8231 21.9519 26.4767V10.8662C16.1111 11.5198 11.6729 14.7643 11.6729 18.6715Z" fill="white"/>
</g>
</g>
<defs>
<clipPath id="clip0_297_404">
<rect width="45.39" height="45.39" fill="white" transform="translate(0.389648)"/>
</clipPath>
<clipPath id="clip1_297_404">
<rect width="45.39" height="45.39" fill="white" transform="translate(0.389648)"/>
</clipPath>
</defs>
</svg>
