<svg width="41" height="41" viewBox="0 0 41 41" fill="none" xmlns="http://www.w3.org/2000/svg">
<circle cx="20.1699" cy="20.6953" r="20" fill="#3C3C3C"/>
<g clip-path="url(#clip0_297_467)">
<path fill-rule="evenodd" clip-rule="evenodd" d="M30.1699 20.6953C30.1699 26.2182 25.6928 30.6953 20.1699 30.6953C14.6471 30.6953 10.1699 26.2182 10.1699 20.6953C10.1699 15.1725 14.6471 10.6953 20.1699 10.6953C25.6928 10.6953 30.1699 15.1725 30.1699 20.6953ZM20.5283 18.0778C19.5556 18.4823 17.6117 19.3196 14.6965 20.5897C14.2231 20.778 13.9751 20.9622 13.9526 21.1422C13.9144 21.4466 14.2955 21.5664 14.8145 21.7296C14.8851 21.7518 14.9582 21.7748 15.0332 21.7992C15.5438 21.9651 16.2306 22.1593 16.5877 22.167C16.9115 22.174 17.273 22.0405 17.6721 21.7664C20.3959 19.9278 21.8019 18.9985 21.8902 18.9785C21.9525 18.9643 22.0388 18.9465 22.0972 18.9985C22.1557 19.0505 22.15 19.1489 22.1438 19.1753C22.106 19.3363 20.61 20.7271 19.8359 21.4468C19.5945 21.6712 19.4233 21.8303 19.3883 21.8667C19.3099 21.9481 19.23 22.0251 19.1532 22.0991C18.6789 22.5564 18.3232 22.8993 19.1729 23.4593C19.5813 23.7284 19.9081 23.9509 20.2341 24.1729C20.5901 24.4154 20.9452 24.6572 21.4046 24.9584C21.5217 25.0351 21.6334 25.1148 21.7423 25.1924C22.1566 25.4878 22.5289 25.7532 22.9887 25.7108C23.256 25.6862 23.532 25.435 23.6722 24.6856C24.0034 22.9146 24.6546 19.0774 24.8051 17.4961C24.8183 17.3576 24.8017 17.1803 24.7884 17.1025C24.7751 17.0246 24.7472 16.9137 24.6461 16.8316C24.5262 16.7344 24.3413 16.7139 24.2586 16.7154C23.8824 16.722 23.3054 16.9227 20.5283 18.0778Z" fill="#AFAFAF"/>
</g>
<defs>
<clipPath id="clip0_297_467">
<rect width="20" height="20" fill="white" transform="translate(10.1699 10.6953)"/>
</clipPath>
</defs>
</svg>
