<svg width="41" height="41" viewBox="0 0 41 41" fill="none" xmlns="http://www.w3.org/2000/svg">
<circle cx="20.1699" cy="20.6953" r="20" fill="#3C3C3C"/>
<g clip-path="url(#clip0_297_472)">
<path d="M24.3974 10.6953H21.0268V24.3185C21.0268 25.9417 19.7304 27.275 18.1171 27.275C16.5039 27.275 15.2075 25.9417 15.2075 24.3185C15.2075 22.7243 16.4751 21.4199 18.0307 21.362V17.9417C14.6025 17.9996 11.8369 20.8113 11.8369 24.3185C11.8369 27.8548 14.6601 30.6953 18.146 30.6953C21.6317 30.6953 24.4549 27.8258 24.4549 24.3185V17.333C25.7225 18.2605 27.2782 18.8113 28.9202 18.8403V15.42C26.3851 15.333 24.3974 13.246 24.3974 10.6953Z" fill="#AFAFAF"/>
</g>
<defs>
<clipPath id="clip0_297_472">
<rect width="20" height="20" fill="white" transform="translate(10.1699 10.6953)"/>
</clipPath>
</defs>
</svg>
