<svg width="41" height="41" viewBox="0 0 41 41" fill="none" xmlns="http://www.w3.org/2000/svg">
<circle cx="20.1699" cy="20.6953" r="20" fill="#3C3C3C"/>
<g clip-path="url(#clip0_297_477)">
<path d="M29.9707 16.6953C29.9707 16.6953 29.7754 15.3164 29.1738 14.7109C28.4121 13.9141 27.5605 13.9102 27.1699 13.8633C24.373 13.6602 20.1738 13.6602 20.1738 13.6602H20.166C20.166 13.6602 15.9668 13.6602 13.1699 13.8633C12.7793 13.9102 11.9277 13.9141 11.166 14.7109C10.5645 15.3164 10.373 16.6953 10.373 16.6953C10.373 16.6953 10.1699 18.3164 10.1699 19.9336V21.4492C10.1699 23.0664 10.3691 24.6875 10.3691 24.6875C10.3691 24.6875 10.5645 26.0664 11.1621 26.6719C11.9238 27.4688 12.9238 27.4414 13.3691 27.5273C14.9707 27.6797 20.1699 27.7266 20.1699 27.7266C20.1699 27.7266 24.373 27.7188 27.1699 27.5195C27.5605 27.4727 28.4121 27.4688 29.1738 26.6719C29.7754 26.0664 29.9707 24.6875 29.9707 24.6875C29.9707 24.6875 30.1699 23.0703 30.1699 21.4492V19.9336C30.1699 18.3164 29.9707 16.6953 29.9707 16.6953ZM18.1035 23.2891V17.668L23.5059 20.4883L18.1035 23.2891Z" fill="#AFAFAF"/>
</g>
<defs>
<clipPath id="clip0_297_477">
<rect width="20" height="20" fill="white" transform="translate(10.1699 10.6953)"/>
</clipPath>
</defs>
</svg>
