<svg width="26" height="26" viewBox="0 0 26 26" fill="none" xmlns="http://www.w3.org/2000/svg">
<path id="Vector" d="M24.7601 4.76948C25.7362 3.79338 25.7362 2.20818 24.7601 1.23208C23.784 0.255974 22.1988 0.255974 21.2227 1.23208L13 9.46259L4.76948 1.23989C3.79338 0.263783 2.20818 0.263783 1.23208 1.23989C0.255974 2.21599 0.255974 3.80119 1.23208 4.77729L9.46259 13L1.23989 21.2305C0.263783 22.2066 0.263783 23.7918 1.23989 24.7679C2.21599 25.744 3.80119 25.744 4.77729 24.7679L13 16.5374L21.2305 24.7601C22.2066 25.7362 23.7918 25.7362 24.7679 24.7601C25.744 23.784 25.744 22.1988 24.7679 21.2227L16.5374 13L24.7601 4.76948Z" fill="white"/>
</svg>
